<svg width="152" height="41" viewBox="0 0 152 41" fill="none" xmlns="http://www.w3.org/2000/svg">
<path d="M58.14 8.40752V24H54.3418V14.649L50.8546 24H47.7894L44.28 14.6267V24H40.4818V8.40752H44.9686L49.3442 19.2023L53.6755 8.40752H58.14ZM60.1161 17.7808C60.1161 16.5073 60.3531 15.3893 60.8269 14.4268C61.3155 13.4643 61.9745 12.724 62.8037 12.2057C63.6329 11.6874 64.5584 11.4283 65.5802 11.4283C66.4538 11.4283 67.2164 11.606 67.8679 11.9614C68.5343 12.3167 69.0452 12.7832 69.4005 13.3607V11.606H73.1987V24H69.4005V22.2453C69.0303 22.8228 68.5121 23.2892 67.8457 23.6446C67.1942 24 66.4316 24.1777 65.5579 24.1777C64.551 24.1777 63.6329 23.9186 62.8037 23.4003C61.9745 22.8672 61.3155 22.1194 60.8269 21.1569C60.3531 20.1796 60.1161 19.0542 60.1161 17.7808ZM69.4005 17.803C69.4005 16.8553 69.134 16.1075 68.6009 15.5596C68.0827 15.0117 67.4459 14.7378 66.6907 14.7378C65.9355 14.7378 65.2914 15.0117 64.7583 15.5596C64.2401 16.0927 63.9809 16.8331 63.9809 17.7808C63.9809 18.7285 64.2401 19.4837 64.7583 20.0464C65.2914 20.5942 65.9355 20.8682 66.6907 20.8682C67.4459 20.8682 68.0827 20.5942 68.6009 20.0464C69.134 19.4985 69.4005 18.7507 69.4005 17.803ZM83.4984 11.4727C84.9496 11.4727 86.1046 11.9466 86.9634 12.8942C87.8371 13.8271 88.2739 15.1154 88.2739 16.759V24H84.4979V17.2699C84.4979 16.4407 84.2832 15.7965 83.8538 15.3375C83.4244 14.8785 82.8469 14.649 82.1213 14.649C81.3957 14.649 80.8182 14.8785 80.3888 15.3375C79.9594 15.7965 79.7447 16.4407 79.7447 17.2699V24H75.9465V11.606H79.7447V13.2496C80.1297 12.7017 80.6479 12.2723 81.2995 11.9614C81.951 11.6356 82.684 11.4727 83.4984 11.4727ZM94.7114 13.3607C95.0816 12.7832 95.5925 12.3167 96.244 11.9614C96.8955 11.606 97.6581 11.4283 98.5318 11.4283C99.5535 11.4283 100.479 11.6874 101.308 12.2057C102.137 12.724 102.789 13.4643 103.263 14.4268C103.752 15.3893 103.996 16.5073 103.996 17.7808C103.996 19.0542 103.752 20.1796 103.263 21.1569C102.789 22.1194 102.137 22.8672 101.308 23.4003C100.479 23.9186 99.5535 24.1777 98.5318 24.1777C97.673 24.1777 96.9104 24 96.244 23.6446C95.5925 23.2892 95.0816 22.8302 94.7114 22.2675V29.9083H90.9133V11.606H94.7114V13.3607ZM100.131 17.7808C100.131 16.8331 99.8645 16.0927 99.3314 15.5596C98.8131 15.0117 98.169 14.7378 97.399 14.7378C96.6438 14.7378 95.9997 15.0117 95.4666 15.5596C94.9483 16.1075 94.6892 16.8553 94.6892 17.803C94.6892 18.7507 94.9483 19.4985 95.4666 20.0464C95.9997 20.5942 96.6438 20.8682 97.399 20.8682C98.1542 20.8682 98.7983 20.5942 99.3314 20.0464C99.8645 19.4837 100.131 18.7285 100.131 17.7808ZM109.787 13.6716C110.231 12.9905 110.786 12.4574 111.452 12.0724C112.119 11.6726 112.859 11.4727 113.674 11.4727V15.493H112.63C111.682 15.493 110.971 15.7003 110.497 16.1149C110.024 16.5147 109.787 17.2255 109.787 18.2472V24H105.988V11.606H109.787V13.6716ZM127.172 17.6031C127.172 17.9585 127.15 18.3287 127.106 18.7137H118.51C118.569 19.4837 118.813 20.076 119.243 20.4906C119.687 20.8904 120.228 21.0903 120.864 21.0903C121.812 21.0903 122.471 20.6905 122.841 19.8909H126.884C126.676 20.7053 126.299 21.4383 125.751 22.0898C125.218 22.7413 124.544 23.2522 123.73 23.6224C122.915 23.9926 122.004 24.1777 120.998 24.1777C119.783 24.1777 118.702 23.9186 117.755 23.4003C116.807 22.882 116.067 22.1416 115.533 21.1791C115 20.2166 114.734 19.0913 114.734 17.803C114.734 16.5147 114.993 15.3893 115.511 14.4268C116.044 13.4643 116.785 12.724 117.732 12.2057C118.68 11.6874 119.768 11.4283 120.998 11.4283C122.197 11.4283 123.263 11.68 124.196 12.1835C125.129 12.6869 125.854 13.4051 126.373 14.338C126.906 15.2709 127.172 16.3592 127.172 17.6031ZM123.285 16.6036C123.285 15.952 123.063 15.4338 122.619 15.0488C122.175 14.6638 121.619 14.4713 120.953 14.4713C120.316 14.4713 119.776 14.6564 119.332 15.0266C118.902 15.3967 118.636 15.9224 118.532 16.6036H123.285ZM140.859 17.6031C140.859 17.9585 140.837 18.3287 140.793 18.7137H132.197C132.256 19.4837 132.5 20.076 132.93 20.4906C133.374 20.8904 133.914 21.0903 134.551 21.0903C135.499 21.0903 136.158 20.6905 136.528 19.8909H140.571C140.363 20.7053 139.986 21.4383 139.438 22.0898C138.905 22.7413 138.231 23.2522 137.417 23.6224C136.602 23.9926 135.691 24.1777 134.684 24.1777C133.47 24.1777 132.389 23.9186 131.442 23.4003C130.494 22.882 129.754 22.1416 129.22 21.1791C128.687 20.2166 128.421 19.0913 128.421 17.803C128.421 16.5147 128.68 15.3893 129.198 14.4268C129.731 13.4643 130.472 12.724 131.419 12.2057C132.367 11.6874 133.455 11.4283 134.684 11.4283C135.884 11.4283 136.95 11.68 137.883 12.1835C138.816 12.6869 139.541 13.4051 140.06 14.338C140.593 15.2709 140.859 16.3592 140.859 17.6031ZM136.972 16.6036C136.972 15.952 136.75 15.4338 136.306 15.0488C135.862 14.6638 135.306 14.4713 134.64 14.4713C134.003 14.4713 133.463 14.6564 133.019 15.0266C132.589 15.3967 132.323 15.9224 132.219 16.6036H136.972ZM149.771 20.7793V24H147.838C146.461 24 145.388 23.6668 144.618 23.0005C143.848 22.3193 143.463 21.2162 143.463 19.691V14.76H141.952V11.606H143.463V8.58521H147.261V11.606H149.749V14.76H147.261V19.7354C147.261 20.1056 147.35 20.3721 147.527 20.535C147.705 20.6979 148.001 20.7793 148.416 20.7793H149.771Z" fill="white"/>
<path d="M75.7302 36.1341C75.3081 36.1341 74.9288 36.0606 74.5923 35.9138C74.2619 35.7609 74.0019 35.5529 73.8123 35.2898C73.6226 35.0206 73.5247 34.7117 73.5186 34.363H74.4088C74.4393 34.6627 74.5617 34.9166 74.7758 35.1246C74.9961 35.3265 75.3142 35.4275 75.7302 35.4275C76.1278 35.4275 76.4398 35.3296 76.6662 35.1338C76.8987 34.9319 77.0149 34.675 77.0149 34.363C77.0149 34.1183 76.9476 33.9194 76.813 33.7665C76.6784 33.6136 76.5102 33.4973 76.3083 33.4178C76.1064 33.3383 75.8342 33.2526 75.4916 33.1608C75.0695 33.0507 74.7299 32.9406 74.473 32.8305C74.2222 32.7204 74.005 32.5491 73.8215 32.3166C73.644 32.078 73.5553 31.7599 73.5553 31.3622C73.5553 31.0135 73.644 30.7046 73.8215 30.4354C73.9989 30.1662 74.2466 29.9582 74.5648 29.8114C74.889 29.6646 75.2591 29.5912 75.6751 29.5912C76.2747 29.5912 76.7641 29.741 77.1434 30.0408C77.5288 30.3406 77.746 30.7382 77.7949 31.2338H76.8773C76.8467 30.9891 76.7182 30.7749 76.4918 30.5914C76.2655 30.4018 75.9657 30.3069 75.5925 30.3069C75.2438 30.3069 74.9593 30.3987 74.7391 30.5822C74.5189 30.7596 74.4088 31.0105 74.4088 31.3347C74.4088 31.5672 74.473 31.7568 74.6015 31.9037C74.7361 32.0505 74.8982 32.1637 75.0878 32.2432C75.2836 32.3166 75.5558 32.4022 75.9045 32.5001C76.3267 32.6164 76.6662 32.7326 76.9231 32.8488C77.1801 32.959 77.4003 33.1333 77.5839 33.3719C77.7674 33.6044 77.8591 33.9225 77.8591 34.3263C77.8591 34.6383 77.7766 34.9319 77.6114 35.2072C77.4462 35.4825 77.2015 35.7058 76.8773 35.8771C76.553 36.0484 76.1707 36.1341 75.7302 36.1341ZM85.429 29.6737V36.0698H84.594V29.6737H85.429ZM97.387 36.0698H96.5519L93.1933 30.9768V36.0698H92.3582V29.6646H93.1933L96.5519 34.7484V29.6646H97.387V36.0698ZM109.162 31.5274C108.984 31.1542 108.727 30.8667 108.391 30.6648C108.054 30.4568 107.663 30.3528 107.216 30.3528C106.77 30.3528 106.366 30.4568 106.005 30.6648C105.65 30.8667 105.369 31.1604 105.161 31.5458C104.959 31.9251 104.858 32.3655 104.858 32.8672C104.858 33.3688 104.959 33.8093 105.161 34.1886C105.369 34.5679 105.65 34.8616 106.005 35.0696C106.366 35.2715 106.77 35.3724 107.216 35.3724C107.84 35.3724 108.354 35.1858 108.758 34.8126C109.162 34.4395 109.397 33.9347 109.465 33.2985H106.913V32.6194H110.355V33.2618C110.306 33.7879 110.141 34.2712 109.859 34.7117C109.578 35.146 109.208 35.4917 108.749 35.7486C108.29 35.9995 107.779 36.1249 107.216 36.1249C106.623 36.1249 106.081 35.9872 105.592 35.7119C105.103 35.4305 104.714 35.042 104.427 34.5465C104.145 34.051 104.004 33.4912 104.004 32.8672C104.004 32.2432 104.145 31.6834 104.427 31.1879C104.714 30.6862 105.103 30.2978 105.592 30.0225C106.081 29.741 106.623 29.6003 107.216 29.6003C107.895 29.6003 108.495 29.7686 109.015 30.105C109.541 30.4415 109.923 30.9156 110.162 31.5274H109.162ZM121.893 29.6737V36.0698H121.057V33.17H117.8V36.0698H116.965V29.6737H117.8V32.4818H121.057V29.6737H121.893Z" fill="white"/>
<path d="M0 6.51746H23.7302" stroke="white" stroke-width="2.71203"/>
<path d="M0 32.6558H23.7302" stroke="white" stroke-width="2.71203"/>
<path d="M12 7L21 19.5517L12 33" stroke="white" stroke-width="2.71203"/>
</svg>
